<svg xmlns="http://www.w3.org/2000/svg" xmlns:xlink="http://www.w3.org/1999/xlink" width="512" height="512" viewBox="0 0 512 512">
  <defs>
    <linearGradient id="linear-gradient" x1="0.5" x2="0.5" y2="1" gradientUnits="objectBoundingBox">
      <stop offset="0" stop-color="#fecc4f"/>
      <stop offset="1" stop-color="#f5852c"/>
    </linearGradient>
  </defs>
  <g id="Group_3" data-name="Group 3" transform="translate(-172 -29)">
    <rect id="Rectangle_1" data-name="Rectangle 1" width="512" height="512" rx="80" transform="translate(172 29)" fill="url(#linear-gradient)"/>
    <g id="Group_1" data-name="Group 1">
      <path id="Subtraction_1" data-name="Subtraction 1" d="M168.671,222.509c-1.99,0-14.071-6.456-14.193-6.521l-17.23-9.238-8.9-5.547-6.8-3.761-5.2-2.758-5.851-3.622-5.889-4.32L97.033,181.4l-6.339-5.581-4.127-6.152L84.7,164.936,82.157,157.4l-2.02-7.449-2.082-6.727-3.183-5.264-3.589-3.837L65.1,129.079l-7.9-4.9L49.472,119.2l-7.681-4.66-6.944-3.588-6.636-3.064-6.976-3.806-6.265-3.1-7.86-3.965L0,93.361,45.931,0C69.158,12.664,87.723,24.115,99.207,31.491c12.42,7.977,19.487,13.055,19.557,13.106l7.215,5.007,5.449,8.244L134,68.409l3.248,11.927,2.083,7.051,3.288,5.974,3.757,3.654,5.13,3.965,6.964,4.789,18.451,11.225L194.985,126l.01,0c.627.3,15.384,7.326,16.926,8.117a.246.246,0,0,1,.116.156c.66,2.136-10.6,22.911-10.712,23.121l-6.339,12.268-6.323,13.679-10.227,21.88-4.275,10.213c-.036.069-3.666,6.9-5.416,7.069C168.722,222.508,168.7,222.509,168.671,222.509Zm-16.24-98.979a35.389,35.389,0,1,0,13.818,2.79A35.276,35.276,0,0,0,152.431,123.53Z" transform="translate(442.568 136.969)" fill="#fff" stroke="#fff" stroke-linecap="round" stroke-width="12"/>
      <line id="Line_1" data-name="Line 1" x1="150" y2="324" transform="translate(338.5 123.5)" fill="none" stroke="#fff" stroke-linecap="round" stroke-width="12"/>
      <path id="Path_3" data-name="Path 3" d="M622.806,285.089s15.568,12.026,3.267,25.145-20.255,15.006-20.255,15.006L595.53,296.611Z" fill="#fff"/>
    </g>
    <g id="Group_2" data-name="Group 2">
      <line id="Line_2" data-name="Line 2" x2="150" y2="324" transform="translate(365.5 123.5)" fill="none" stroke="#fff" stroke-linecap="round" stroke-width="12"/>
      <path id="Path_4" data-name="Path 4" d="M613.7,162.969c-44.957,24.515-72.831,44.6-72.831,44.6l-7.215,5.007-5.448,8.244-2.572,10.562L522.383,243.3l-2.082,7.051-3.288,5.975-3.757,3.654-5.13,3.965-6.964,4.789-18.451,11.224-18.064,9.006s-15.341,7.3-16.935,8.122,10.6,23.277,10.6,23.277l6.338,12.268,6.324,13.679,10.226,21.88,4.275,10.213s3.645,6.9,5.415,7.068,14.266-6.518,14.266-6.518l17.229-9.238,8.9-5.547,6.8-3.762,5.2-2.758,5.851-3.623,5.888-4.319,7.573-5.345,6.338-5.58,4.128-6.151,1.87-4.73,2.539-7.538,2.019-7.449,2.082-6.727,3.183-5.264,3.589-3.837,6.179-5.042,7.9-4.9,7.735-4.984,7.68-4.661,6.945-3.588,6.635-3.064,6.975-3.806,6.265-3.1,7.86-3.965,7.111-3.654" transform="translate(-246.387 -26)" fill="#fff" stroke="#fff" stroke-linecap="round" stroke-width="12"/>
    </g>
  </g>
</svg>
