<svg width="512" height="512" viewBox="0 0 512 512" fill="none" xmlns="http://www.w3.org/2000/svg">
<rect width="512" height="512" rx="80" fill="url(#paint0_linear)"/>
<rect x="122" y="235" width="154" height="104" rx="5" fill="#D8637E" stroke="black" stroke-width="10"/>
<mask id="path-3-inside-1" fill="white">
<path fill-rule="evenodd" clip-rule="evenodd" d="M281 281C275.477 281 271 285.477 271 291V331H231C225.477 331 221 335.477 221 341V384C221 389.523 225.477 394 231 394H371C376.523 394 381 389.523 381 384V341C381 335.477 376.523 331 371 331H331V291C331 285.477 326.523 281 321 281H281Z"/>
</mask>
<path fill-rule="evenodd" clip-rule="evenodd" d="M281 281C275.477 281 271 285.477 271 291V331H231C225.477 331 221 335.477 221 341V384C221 389.523 225.477 394 231 394H371C376.523 394 381 389.523 381 384V341C381 335.477 376.523 331 371 331H331V291C331 285.477 326.523 281 321 281H281Z" fill="#4179B0"/>
<path d="M271 331V341H281V331H271ZM331 331H321V341H331V331ZM281 291V291V271C269.954 271 261 279.954 261 291H281ZM281 331V291H261V331H281ZM231 341H271V321H231V341ZM231 341V321C219.954 321 211 329.954 211 341H231ZM231 384V341H211V384H231ZM231 384H211C211 395.046 219.954 404 231 404V384ZM371 384H231V404H371V384ZM371 384V404C382.046 404 391 395.046 391 384H371ZM371 341V384H391V341H371ZM371 341H391C391 329.954 382.046 321 371 321V341ZM331 341H371V321H331V341ZM321 291V331H341V291H321ZM321 291H341C341 279.954 332.046 271 321 271V291ZM281 291H321V271H281V291Z" fill="black" mask="url(#path-3-inside-1)"/>
<mask id="path-5-inside-2" fill="white">
<path fill-rule="evenodd" clip-rule="evenodd" d="M291 117C285.477 117 281 121.477 281 127V235C281 240.523 285.477 245 291 245H330V283C330 288.523 334.477 293 340 293H384C389.523 293 394 288.523 394 283V190C394 184.477 389.523 180 384 180H343V127C343 121.477 338.523 117 333 117H291Z"/>
</mask>
<path fill-rule="evenodd" clip-rule="evenodd" d="M291 117C285.477 117 281 121.477 281 127V235C281 240.523 285.477 245 291 245H330V283C330 288.523 334.477 293 340 293H384C389.523 293 394 288.523 394 283V190C394 184.477 389.523 180 384 180H343V127C343 121.477 338.523 117 333 117H291Z" fill="#F8DB66"/>
<path d="M330 245H340V235H330V245ZM343 180H333V190H343V180ZM291 127V107C279.954 107 271 115.954 271 127H291ZM291 235V127H271V235H291ZM291 235H291H271C271 246.046 279.954 255 291 255V235ZM330 235H291V255H330V235ZM340 283V245H320V283H340ZM340 283H320C320 294.046 328.954 303 340 303V283ZM384 283H340V303H384V283ZM384 283V303C395.046 303 404 294.046 404 283H384ZM384 190V283H404V190H384ZM384 190H404C404 178.954 395.046 170 384 170V190ZM343 190H384V170H343V190ZM333 127V180H353V127H333ZM333 127H353C353 115.954 344.046 107 333 107V127ZM291 127H333V107H291V127Z" fill="black" mask="url(#path-5-inside-2)"/>
<rect x="122" y="286" width="103" height="103" rx="5" fill="#1DB185" stroke="black" stroke-width="10"/>
<defs>
<linearGradient id="paint0_linear" x1="256" y1="0" x2="256" y2="512" gradientUnits="userSpaceOnUse">
<stop stop-color="#1DB185"/>
<stop offset="1" stop-color="#199FA3"/>
</linearGradient>
</defs>
</svg>
