<svg width="512" height="512" viewBox="0 0 512 512" fill="none" xmlns="http://www.w3.org/2000/svg">
<rect width="512" height="512" rx="80" fill="url(#paint0_linear)"/>
<path d="M180.655 182.638H164.793V202.466H180.655V182.638Z" fill="white"/>
<path fill-rule="evenodd" clip-rule="evenodd" d="M303.586 162.81L319.448 202.465H355.931C364.251 202.465 370.996 209.211 370.996 217.53V333.99C370.996 342.385 364.191 349.19 355.796 349.19H156.2C147.805 349.19 141 342.385 141 333.99V217.53C141 209.211 147.745 202.465 156.065 202.465H192.552L208.414 162.81H303.586ZM323.414 265.914C323.414 303.145 293.232 333.328 256 333.328C218.768 333.328 188.586 303.145 188.586 265.914C188.586 228.682 218.768 198.5 256 198.5C293.232 198.5 323.414 228.682 323.414 265.914ZM355.138 230.224C355.138 236.794 349.812 242.121 343.241 242.121C336.671 242.121 331.345 236.794 331.345 230.224C331.345 223.654 336.671 218.328 343.241 218.328C349.812 218.328 355.138 223.654 355.138 230.224Z" fill="white"/>
<path d="M267.897 265.914C267.897 280.17 273.52 292.792 282.172 300.751C292.748 292.792 299.621 280.17 299.621 265.914C299.621 251.658 292.748 239.036 282.172 231.077C273.52 239.036 267.897 251.658 267.897 265.914Z" fill="white"/>
<path d="M212.379 265.914C212.379 280.17 219.252 292.792 229.828 300.751C238.48 292.792 244.103 280.17 244.103 265.914C244.103 251.658 238.48 239.036 229.828 231.077C219.252 239.036 212.379 251.658 212.379 265.914Z" fill="white"/>
<path d="M256 313.5C229.76 313.5 208.414 292.154 208.414 265.914C208.414 239.674 229.76 218.328 256 218.328C282.24 218.328 303.586 239.674 303.586 265.914C303.586 292.154 282.24 313.5 256 313.5ZM256 226.259C234.134 226.259 216.345 244.048 216.345 265.914C216.345 287.78 234.134 305.569 256 305.569C277.866 305.569 295.655 287.78 295.655 265.914C295.655 244.048 277.866 226.259 256 226.259Z" fill="white"/>
<defs>
<linearGradient id="paint0_linear" x1="256" y1="0" x2="256" y2="512" gradientUnits="userSpaceOnUse">
<stop stop-color="#6E76E5"/>
<stop offset="0.9999" stop-color="#704095" stop-opacity="0.744792"/>
<stop offset="1" stop-color="#6E76E5" stop-opacity="0"/>
</linearGradient>
</defs>
</svg>
